<svg xmlns="http://www.w3.org/2000/svg" viewBox="0 0 800 520" preserveAspectRatio="xMidYMid slice">
  <defs>
    <linearGradient id="sky" x1="0" y1="0" x2="0" y2="1"><stop offset="0" stop-color="#F6B98A"/><stop offset=".6" stop-color="#FCE3C4"/><stop offset="1" stop-color="#FFF4E4"/></linearGradient>
    <linearGradient id="volc" x1="0" y1="0" x2="0" y2="1"><stop offset="0" stop-color="#9C5B45"/><stop offset="1" stop-color="#6D3B2E"/></linearGradient>
  </defs>
  <rect width="800" height="520" fill="url(#sky)"/>
  <circle cx="160" cy="120" r="46" fill="#FFF1C1"/>
  <g fill="#FFFFFF" opacity=".85"><ellipse cx="560" cy="200" rx="160" ry="22"/><ellipse cx="220" cy="230" rx="140" ry="18"/></g>
  <path d="M0 300 C 160 240 280 150 420 130 C 560 150 680 230 800 280 L800 520 L0 520Z" fill="url(#volc)"/>
  <path d="M0 360 C 200 320 360 300 520 320 C 640 336 720 350 800 340 L800 520 L0 520Z" fill="#8A4A36"/>
  <path d="M-20 520 C 120 440 300 420 420 400 C 560 380 660 360 820 330" stroke="#3A3A44" stroke-width="54" fill="none"/>
  <path d="M-20 520 C 120 440 300 420 420 400 C 560 380 660 360 820 330" stroke="#F8FAFC" stroke-width="3" stroke-dasharray="22 18" fill="none"/>
  <g transform="translate(360 330)">
    <g fill="none" stroke="#111827" stroke-width="5">
      <circle cx="0" cy="60" r="26"/><circle cx="92" cy="54" r="26"/>
      <path d="M0 60 L34 20 L78 18 L92 54 M34 20 L46 58 L78 18 M46 58 L0 60"/>
    </g>
    <path d="M72 14 h18" stroke="#111827" stroke-width="5" stroke-linecap="round"/>
    <path d="M34 20 l-4 -10 h-12" stroke="#111827" stroke-width="5" stroke-linecap="round"/>
    <path d="M30 -40 L 52 0 L 46 58" stroke="#1E3A8A" stroke-width="10" fill="none" stroke-linecap="round"/>
    <path d="M30 -40 L 66 -24 L 80 14" stroke="#F0643C" stroke-width="10" fill="none" stroke-linecap="round"/>
    <path d="M18 -52 L 44 -34 L 60 -8 L 30 -2 Z" fill="#F0643C"/>
    <circle cx="68" cy="-50" r="11" fill="#8B5A3C"/>
    <path d="M56 -56 q12 -16 26 -2z" fill="#FACC15"/>
  </g>
</svg>
