<svg xmlns="http://www.w3.org/2000/svg" viewBox="0 0 800 520" preserveAspectRatio="xMidYMid slice">
  <defs>
    <linearGradient id="sky" x1="0" y1="0" x2="0" y2="1"><stop offset="0" stop-color="#7CC6F2"/><stop offset="1" stop-color="#D9F1FB"/></linearGradient>
    <linearGradient id="sea" x1="0" y1="0" x2="0" y2="1"><stop offset="0" stop-color="#1FB5C9"/><stop offset=".55" stop-color="#0E8FA8"/><stop offset="1" stop-color="#0A5E78"/></linearGradient>
    <linearGradient id="cliff" x1="0" y1="0" x2="0" y2="1"><stop offset="0" stop-color="#3E7D4F"/><stop offset="1" stop-color="#23513A"/></linearGradient>
  </defs>
  <rect width="800" height="520" fill="url(#sky)"/>
  <circle cx="640" cy="90" r="38" fill="#FFF4C9" opacity=".9"/>
  <path d="M0 250 C 80 150 150 120 230 170 C 290 205 320 250 360 262 L 0 262Z" fill="url(#cliff)"/>
  <path d="M470 262 C 520 190 600 150 680 180 C 740 200 780 230 800 222 L 800 262Z" fill="#2F6A45"/>
  <path d="M0 262 C 60 200 110 190 170 220 C 210 240 250 262 250 262Z" fill="#4C9A5F" opacity=".7"/>
  <rect y="258" width="800" height="262" fill="url(#sea)"/>
  <g stroke="#BFF3F7" stroke-width="3" stroke-linecap="round" opacity=".55" fill="none">
    <path d="M60 300 h60"/><path d="M520 290 h90"/><path d="M300 330 h70"/><path d="M640 360 h80"/><path d="M90 420 h110"/><path d="M430 470 h90"/>
  </g>
  <g transform="translate(300 380) rotate(-4)">
    <ellipse cx="100" cy="30" rx="150" ry="12" fill="#07465A" opacity=".35"/>
    <path d="M-40 18 C 30 6 170 6 240 18 C 170 34 30 34 -40 18Z" fill="#F0643C"/>
    <path d="M-40 18 C 30 12 170 12 240 18" stroke="#FFB199" stroke-width="3" fill="none"/>
    <ellipse cx="100" cy="16" rx="26" ry="6" fill="#3A1E14"/>
    <path d="M90 -34 q10 -6 20 0 l6 48 h-32z" fill="#FDE68A"/>
    <circle cx="100" cy="-44" r="11" fill="#8B5A3C"/>
    <path d="M89 -50 q11 -14 22 0z" fill="#F5F5F4"/>
    <path d="M20 -40 L 190 40" stroke="#1F2937" stroke-width="5" stroke-linecap="round"/>
    <ellipse cx="18" cy="-41" rx="16" ry="6" transform="rotate(25 18 -41)" fill="#FACC15"/>
    <ellipse cx="192" cy="41" rx="16" ry="6" transform="rotate(25 192 41)" fill="#FACC15"/>
  </g>
</svg>
